/* XPM */
static char *moria_pillar_xpm[] = {
"64 64 6 1",
". c #1a1a1a",
"o c #2a2a2a",
"O c #3a3a3a",
"+ c #4a4a4a",
"@ c #5a5a5a",
"# c #222222",

"................................................................",
".@@@@@@@.oooooooooooooooooooooooooooooooooooooooooooooo.@@@@@@@.",
".@O@@@O@.oooooooooooooooooooooooooooooooooooooooooooooo.@O@@@O@.",
".@O++O+@.oooooooooooooooooooooooooooooooooooooooooooooo.@O++O+@.",
".@O++O+@.oooooooooooooooooooooooooooooooooooooooooooooo.@O++O+@.",
".@O++O+@.oooooooooooooooooooooooooooooooooooooooooooooo.@O++O+@.",
".@O++O+@.oooooooooooooooooooooooooooooooooooooooooooooo.@O++O+@.",
".@O++O+@.oooooooooooooooooooooooooooooooooooooooooooooo.@O++O+@.",
".@O++O+@.oooooooooooooooooooooooooooooooooooooooooooooo.@O++O+@.",
".@O++O+@.oooooooooooooooooooooooooooooooooooooooooooooo.@O++O+@.",
".@O++O+@.oooooooooooooooooooooooooooooooooooooooooooooo.@O++O+@.",
".@O++O+@.oooooooooooooooooooooooooooooooooooooooooooooo.@O++O+@.",
".@O++O+@.oooooooooooooooooooooooooooooooooooooooooooooo.@O++O+@.",
".@O++O+@.oooooooooooooooooooooooooooooooooooooooooooooo.@O++O+@.",
".@O++O+@.oooooooooooooooooooooooooooooooooooooooooooooo.@O++O+@.",
".@O@@@O@.oooooooooooooooooooooooooooooooooooooooooooooo.@O@@@O@.",
".@@@@@@@.oooooooooooooooooooooooooooooooooooooooooooooo.@@@@@@@.",
"................................................................",
"................................................................",
".@@@@@@@.oooooooooooooooooooooooooooooooooooooooooooooo.@@@@@@@.",
".@O@@@O@.oooooooooooooooooooooooooooooooooooooooooooooo.@O@@@O@.",
".@O++O+@.oooooooooooooooooooooooooooooooooooooooooooooo.@O++O+@.",
".@O++O+@.oooooooooooooooooooooooooooooooooooooooooooooo.@O++O+@.",
".@O++O+@.oooooooooooooooooooooooooooooooooooooooooooooo.@O++O+@.",
".@O++O+@.oooooooooooooooooooooooooooooooooooooooooooooo.@O++O+@.",
".@O++O+@.oooooooooooooooooooooooooooooooooooooooooooooo.@O++O+@.",
".@O++O+@.oooooooooooooooooooooooooooooooooooooooooooooo.@O++O+@.",
".@O++O+@.oooooooooooooooooooooooooooooooooooooooooooooo.@O++O+@.",
".@O++O+@.oooooooooooooooooooooooooooooooooooooooooooooo.@O++O+@.",
".@O++O+@.oooooooooooooooooooooooooooooooooooooooooooooo.@O++O+@.",
".@O++O+@.oooooooooooooooooooooooooooooooooooooooooooooo.@O++O+@.",
".@O++O+@.oooooooooooooooooooooooooooooooooooooooooooooo.@O++O+@.",
".@O++O+@.oooooooooooooooooooooooooooooooooooooooooooooo.@O++O+@.",
".@O@@@O@.oooooooooooooooooooooooooooooooooooooooooooooo.@O@@@O@.",
".@@@@@@@.oooooooooooooooooooooooooooooooooooooooooooooo.@@@@@@@.",
"................................................................",
"................................................................",
".@@@@@@@.oooooooooooooooooooooooooooooooooooooooooooooo.@@@@@@@.",
".@O@@@O@.oooooooooooooooooooooooooooooooooooooooooooooo.@O@@@O@.",
".@O++O+@.oooooooooooooooooooooooooooooooooooooooooooooo.@O++O+@.",
".@O++O+@.oooooooooooooooooooooooooooooooooooooooooooooo.@O++O+@.",
".@O++O+@.oooooooooooooooooooooooooooooooooooooooooooooo.@O++O+@.",
".@O++O+@.oooooooooooooooooooooooooooooooooooooooooooooo.@O++O+@.",
".@O++O+@.oooooooooooooooooooooooooooooooooooooooooooooo.@O++O+@.",
".@O++O+@.oooooooooooooooooooooooooooooooooooooooooooooo.@O++O+@.",
".@O++O+@.oooooooooooooooooooooooooooooooooooooooooooooo.@O++O+@.",
".@O++O+@.oooooooooooooooooooooooooooooooooooooooooooooo.@O++O+@.",
".@O++O+@.oooooooooooooooooooooooooooooooooooooooooooooo.@O++O+@.",
".@O++O+@.oooooooooooooooooooooooooooooooooooooooooooooo.@O++O+@.",
".@O++O+@.oooooooooooooooooooooooooooooooooooooooooooooo.@O++O+@.",
".@O++O+@.oooooooooooooooooooooooooooooooooooooooooooooo.@O++O+@.",
".@O@@@O@.oooooooooooooooooooooooooooooooooooooooooooooo.@O@@@O@.",
".@@@@@@@.oooooooooooooooooooooooooooooooooooooooooooooo.@@@@@@@.",
"................................................................",
"................................................................",
".@@@@@@@.oooooooooooooooooooooooooooooooooooooooooooooo.@@@@@@@.",
".@O@@@O@.oooooooooooooooooooooooooooooooooooooooooooooo.@O@@@O@.",
".@O++O+@.oooooooooooooooooooooooooooooooooooooooooooooo.@O++O+@.",
".@O++O+@.oooooooooooooooooooooooooooooooooooooooooooooo.@O++O+@.",
".@O++O+@.oooooooooooooooooooooooooooooooooooooooooooooo.@O++O+@.",
".@O++O+@.oooooooooooooooooooooooooooooooooooooooooooooo.@O++O+@.",
".@O++O+@.oooooooooooooooooooooooooooooooooooooooooooooo.@O++O+@.",
".@O++O+@.oooooooooooooooooooooooooooooooooooooooooooooo.@O++O+@.",
".@O++O+@.oooooooooooooooooooooooooooooooooooooooooooooo.@O++O+@.",
".@O++O+@.oooooooooooooooooooooooooooooooooooooooooooooo.@O++O+@.",
".@O++O+@.oooooooooooooooooooooooooooooooooooooooooooooo.@O++O+@.",
".@O++O+@.oooooooooooooooooooooooooooooooooooooooooooooo.@O++O+@.",
".@O++O+@.oooooooooooooooooooooooooooooooooooooooooooooo.@O++O+@.",
".@O++O+@.oooooooooooooooooooooooooooooooooooooooooooooo.@O++O+@.",
".@O@@@O@.oooooooooooooooooooooooooooooooooooooooooooooo.@O@@@O@.",
".@@@@@@@.oooooooooooooooooooooooooooooooooooooooooooooo.@@@@@@@.",
"................................................................"
};