/* XPM */
static char *rcp13192800114465[] = {
/* columns rows colors chars-per-pixel */
"32 32 7 1 ",
"  c red",
". c red",
"X c black",
"o c yellow",
"O c #B1A561",
"+ c #E9DA8A",
"@ c #4C9D60",
/* pixels */
"@@@@@@@@@@@@@@@@@@@@@@@@@@@@@@@@",
"@@@@@@@@@@@@@@@@@@@@@@@@@@@@@@@@",
"@@@@@@@@@@@@@@@@@@@@@@@@@@@@@@@@",
"@@@@@@@@@@@@@@@@@@@@@@@@@@@@@@@@",
"@@@@@@@@@@@@@@@@@@@@@@@@@@@@@@@@",
"@@@@@@@@@@@@@@@@@X@@@@@@X@@@@@@@",
"@@@@@@@@@@@@@@@@XX@@@@@@XX@@@@@@",
"@@@@@@@@@@@@@@@XXX@@@@@@XXX@@@@@",
"@@@@@ @@@@@@@@@XXXX@@@@XXXX@@@@@",
"@@@@ . @@@@@@@@            @@@@@",
"@@@@ . @@@@@@@@            @@@@@",
"@@@@ . @@@@@@@             @@@@@",
"@@@@ . @@@@@@@      +    +  @@@@",
"@@@@ . @@@@@@@      O    O  @@@@",
"@@@@ . @@@@@@@              @@@@",
"@@@@ .. @@@@@@@ .....    .. @@@@",
"@@@@ ...       X   ...  .. @@@@@",
"@@@@ ..........XX ....... @@@@@@",
"@@@@@ ..........XX       @@@@@@@",
"@@@@@ ...........XXXXXXX@@@@@@@@",
"@@@@@@  ............o.. @@@@@@@@",
"@@@@@@@ ............... @@@@@@@@",
"@@@@@@@ ............... @@@@@@@@",
"@@@@@@@ .............. @@@@@@@@@",
"@@@@@@@ ... ... .. ... @@@@@@@@@",
"@@@@@@@ ... ... .. ... @@@@@@@@@",
"@@@@@@@ ..  ..  ..  .. @@@@@@@@@",
"@@@@@@@@   @   @   @  @@@@@@@@@@",
"@@@@@@@@@@@@@@@@@@@@@@@@@@@@@@@@",
"@@@@@@@@@@@@@@@@@@@@@@@@@@@@@@@@",
"@@@@@@@@@@@@@@@@@@@@@@@@@@@@@@@@",
"@@@@@@@@@@@@@@@@@@@@@@@@@@@@@@@@"
};
