/* XPM */
static char *_b80b959104a4413d33d45e23eb13740XyOkjJNhz4CI9Vmi[] = {
/* columns rows colors chars-per-pixel */
"32 32 40 1 ",
"  c #4C9D60",
"o c #F38E38",
"O c #F8AA42",
"+ c #F8CA88",
"@ c #F8BC68",
"# c #F28438",
"% c #F6B865",
"& c #F07931",
"* c #F9AD43",
"= c #F5BD9A",
"; c #FBE7C6",
": c #F8B14B",
"> c #F69D3E",
"< c #F9D6A2",
"1 c #FAC653",
"2 c #F8BB4D",
"3 c #F5C8AA",
"4 c #F7D8C3",
"5 c #F5C7A0",
"7 c #EED2AB",
"8 c #E3D6C4",
"9 c #F8B659",
"0 c #F3963C",
"q c #F5BD83",
"w c #F19950",
"e c #F2B893",
"r c #F2B289",
"t c #F29546",
"y c #F2B07C",
"u c #F9CD59",
"i c #F7C27A",
"p c #FDF1E6",
"a c #FADEB4",
"s c #F2A779",
"d c #F2A15F",
"f c #B9B9C2",
"g c #F8C373",
"h c #F4A656",
"j c #9095A7",
"k c #D0CDC7",
/* pixels */
"                                ",
"                                ",
"                                ",
"                                ",
"                                ",
"                                ",
"                                ",
"                                ",
"                                ",
"                                ",
"                                ", 
"       a%<      ;@+             ", 
"       <O:<  ;@@9O:@@@+         ",
"       50O+ ;%*O***>oO:+        ",
"        r09i%212122oh777+       ",
"         q*OO:1u1uO#%kj89+      ",
"        ;@gq0>>*>:##%8f8Owp     ",
"       ;@O+ yoooooo&ti+%w3      ",
"       <O>q  y#&#&#&&oot5       ",
"       5od4   ==s&#e===3        ",
"       4r4      e3              ",
"                                ",
"                                ",
"                                ",
"                                ",
"                                ",
"                                ",
"                                ",
"                                ",
"                                ",
"                                ",
"                                ",
"                                "
};
