/* XPM */
static char *rcp13192800114465[] = {
/* columns rows colors chars-per-pixel */
"32 32 7 1 ",
"  c black",
". c #252629",
"X c #343434",
"o c #766F46",
"O c #B1A561",
"+ c #E9DA8A",
"@ c #4C9D60",
/* pixels */
"@@@@@@@@@@@@@@@@@@@@@@@@@@@@@@@@",
"@@@@@@@@@@@@@@@@@@@@@@@@@@@@@@@@",
"@@@@@@@@@@@@@@@@@@@@@@@@@@@@@@@@",
"@@@@@@@@@@@@@@@@@@@@@@@@@@@@@@@@",
"@@@@@@@@@@@@@@@@@@@@@@@@@@@@@@@@",
"@@@@@@@@@@@@@@@@@@ @@@@@@ @@@@@@",
"@@@@@@@@@@@@@@@@@   @@@@   @@@@@",
"@@@@@@@@ @@@@@@@     @@     @@@@",
"@@@@@@@ . @@@@@@     @@     @@@@",
"@@@@@@@ . @@@@@@            @@@@",
"@@@@@@@ . @@@@@@            @@@@",
"@@@@@@ .. @@@@@             @@@@",
"@@@@@ .. @@@@@@      +    +  @@@",
"@@@@@ . @@@@@@@      O    O  @@@",
"@@@@@ . @@@@@@@              @@@",
"@@@@@ .. @@@@@@@ .....    .. @@@",
"@@@@@ ...       X   ...  .. @@@@",
"@@@@@ ..........XX ....... @@@@@",
"@@@@@@ ..........XX       @@@@@@",
"@@@@@@ ...........XXXXXXX@@@@@@@",
"@@@@@@@  ............o.. @@@@@@@",
"@@@@@@@@ ............... @@@@@@@",
"@@@@@@@@ ............... @@@@@@@",
"@@@@@@@@ .............. @@@@@@@@",
"@@@@@@@@ ... ... .. ... @@@@@@@@",
"@@@@@@@@ ... ... .. ... @@@@@@@@",
"@@@@@@@@ ..  ..  ..  .. @@@@@@@@",
"@@@@@@@@@   @   @   @  @@@@@@@@@",
"@@@@@@@@@@@@@@@@@@@@@@@@@@@@@@@@",
"@@@@@@@@@@@@@@@@@@@@@@@@@@@@@@@@",
"@@@@@@@@@@@@@@@@@@@@@@@@@@@@@@@@",
"@@@@@@@@@@@@@@@@@@@@@@@@@@@@@@@@"
};
