/* XPM */
static char *rcp13441561989216[] = {
/* columns rows colors chars-per-pixel */
"32 32 143 2 ",
"   c #053334",
".  c #083434",
"X  c #063834",
"o  c #063A3B",
"O  c #0A3C3B",
"+  c #123C33",
"@  c #0C4F37",
"#  c #06423B",
"$  c #0E403B",
"%  c #0A4B3C",
"&  c #154135",
"*  c #184434",
"=  c #194837",
"-  c #13443B",
";  c #174A3E",
":  c #1C4D3B",
">  c #0F573F",
",  c #1D543A",
"<  c #21543C",
"1  c #265B3D",
"2  c #1C673D",
"3  c #2E763B",
"4  c #053E41",
"5  c #064444",
"6  c #0A4442",
"7  c #064A45",
"8  c #084B44",
"9  c #064748",
"0  c #054C49",
"q  c #164B40",
"w  c #1B4F41",
"e  c #0C5643",
"r  c #0F5946",
"t  c #045349",
"y  c #0A5549",
"u  c #065B49",
"i  c #0A5C4A",
"p  c #1D5140",
"a  c #275D40",
"s  c #0D624A",
"d  c #156044",
"f  c #1C6343",
"g  c #1A6A46",
"h  c #13664A",
"j  c #166A4B",
"k  c #1A6C4B",
"l  c #1E734C",
"z  c #1F7150",
"x  c #2B6442",
"c  c #266D44",
"v  c #2D6C45",
"b  c #276D48",
"n  c #306D46",
"m  c #247444",
"M  c #2D7344",
"N  c #2C7B46",
"B  c #23744D",
"V  c #257C4D",
"C  c #297C4D",
"Z  c #347D46",
"A  c #34734A",
"S  c #377A4C",
"D  c #3A7C4E",
"F  c #247751",
"G  c #267B51",
"H  c #297E51",
"J  c #3B7F50",
"K  c #2D8246",
"L  c #27824E",
"P  c #2B834D",
"I  c #2E8B4E",
"U  c #358344",
"Y  c #398547",
"T  c #358E45",
"R  c #398B45",
"E  c #32854A",
"W  c #3B844C",
"Q  c #328C4E",
"!  c #3D8B4C",
"~  c #369347",
"^  c #399245",
"/  c #3D9A46",
"(  c #34934D",
")  c #3D954B",
"_  c #37994E",
"`  c #3B9D4D",
"'  c #2B8451",
"]  c #2F8A51",
"[  c #318753",
"{  c #3D8451",
"}  c #328C52",
"|  c #3E8950",
" . c #359452",
".. c #399653",
"X. c #379951",
"o. c #3A9B52",
"O. c #3EA34E",
"+. c #3DA252",
"@. c #3FA158",
"#. c #418F4E",
"$. c #42924D",
"%. c #439C4C",
"&. c #489D4F",
"*. c #408753",
"=. c #428C55",
"-. c #448F58",
";. c #449154",
":. c #449C51",
">. c #46935A",
",. c #49965C",
"<. c #419F5A",
"1. c #4B9A5F",
"2. c #42A547",
"3. c #43A44C",
"4. c #49A54F",
"5. c #43AC4D",
"6. c #4AAC4E",
"7. c #46B04F",
"8. c #49B74F",
"9. c #43A655",
"0. c #4AA452",
"q. c #43AC52",
"w. c #4AAB55",
"e. c #45A559",
"r. c #47A95C",
"t. c #49AE5C",
"y. c #45B251",
"u. c #4BB453",
"i. c #4DBC55",
"p. c #4CB25C",
"a. c #4EBB59",
"s. c #51B455",
"d. c #53BD57",
"f. c #54BD5B",
"g. c #4D9D61",
"h. c #50B860",
"j. c #6AAD7B",
"k. c #52C057",
"l. c #55C35B",
"z. c #5AC45D",
"x. c #57C95E",
"c. c #57C461",
"v. c #5DCF64",
/* pixels */
"j.j.j.j.j.j.j.j.j.j.j.j.j.j.j.j.j.j.j.j.j.j.j.j.j.j.j.j.j.j.j.j.",
"g.g.g.g.g.g.g.g.g.g.g.g.g.g.g.g.g.g.g.g.g.g.g.g.g.g.g.g.g.g.g.g.",
"g.g.g.g.g.g.g.g.g.g.g.g.g.g.g.g.g.g.g.g.g.g.g.g.g.g.g.g.g.g.g.g.",
"g.g.g.g.g.g.g.g.g.g.g.g.g.g.g.g.g.g.g.g.g.g.g.g.g.g.g.g.g.g.g.g.",
"g.g.g.g.g.g.g.g.1.1.1.g.1.1.1.1.1.g.g.g.g.g.g.g.g.g.g.g.g.g.g.g.",
"g.g.g.g.g.g.1.1.1.1.1.1.>.-.=.=.>.1.1.g.1.1.1.1.g.g.g.g.g.g.g.g.",
"g.g.g.g.1.,.>.;.-.>.>.>.;.$.R U ! ;.>.>.>.-.-.>.>.1.1.g.g.g.g.g.",
"g.g.1.,.>.;.! Y U Y | =.0.s.u.5./ ! W W Z U ! #.;.>.,.,.>.>.1.g.",
"g.1.,.=.! :.w.6.2./ Y W $.0.u.8.5.T U U ^ 3.s.f.0.#.=.-.W W -.1.",
"1.>.;.:.%.4.u.u.8.5.^ Z Z E O.7.5.~ K T 3.u.l.f.4.U Z $.$.Y =.1.",
"1.-.! w.u.3.%.3.5.5.` Z c N ( +.O.( P Q O.q.q.:.R 3 U 0.s.$.*.1.",
",.=.U :.9._ E P _ O.O.E B B ' X...Q C P  .X.} E U T ` d.z.&.=.1.",
"-.W U E } Q C B ' X.X.] F z F ' ' H F G ' ' G C Q O.y.d.d.%.=.1.",
"! ^ ` ( P ' H B H  .X.] H G H ' H F G ' } } ' H Q O.q.5.3.! -.1.",
") q.u.5.( G G H } +.+.X.} } o.o.} H '  .+.+.X.} Q X.` ~ U | ,.g.",
"4.d.i.y.( V H  .9.u.u.q.X.o.p.p.+.} ' X.q.y.q...} ' P N M =.1.g.",
") w.q.` I '  .t.c.x.i.q.X...r.p.q.X.Q o.y.i.a.e.[ H C m v { 1.g.",
"N P L L P } o.h.v.v.a.+.] '  .+.q.+. .o.q.i.f.e.[ ' Q K M { ,.g.",
"v f h l ' }  .<.p.a.q.X.' ' ] ( (  . .X.o.+.@.} ' ( +.` Q S -.1.",
"v f h l ' L V G } +.+. .H L ( _ I L Q X.o.X.' l l I +.u.w.Y { 1.",
"v f d j k j h j V X.o.] B V ( O.( V L ( O.` L h s l ( 9.:.W { 1.",
"A , % y i u u i j L I V k l I ~ K g k P ( ( V s u i k B b x W 1.",
"S , # 0 t t t t i j l j s h l m 2 > r k B l j u t t 0 7 6 < D 1.",
"S < 6 9 0 0 0 t t u i y t t y e @ % 8 y i i u t t 9 9 5 o < D 1.",
"{ x q 5 5 5 9 9 0 t 9 5 5 9 7 8 # # # 5 9 0 t 0 9 5 5 o . < { 1.",
">.S < O o o 4 5 5 5 6 o o 5 5 5 o X o O 5 5 5 5 6 5 o   + x *.1.",
"1.=.x &       o - w p : - O o o & = : : ; $ O - w : & & 1 S >.1.",
"1.>.S 1 * & & = a A S A x : & = 1 A S S v < : x A A x x S >.1.g.",
"g.1.>.D n v v n J >.,.>.{ S v n J >.,.>.=.S A { >.-.{ { >.1.g.g.",
"g.g.1.>.-.-.-.-.>.1.g.1.,.-.-.-.>.1.g.1.,.>.>.,.1.1.,.,.1.g.g.g.",
"g.g.g.1.1.1.1.1.1.g.g.g.1.1.1.1.1.g.g.g.g.1.1.1.g.g.1.1.g.g.g.g.",
"g.g.g.g.g.g.g.g.g.g.g.g.g.g.g.g.g.g.g.g.g.g.g.g.g.g.g.g.g.g.g.g."
};
