/* XPM */
static char *rcp13481860443593[] = {
/* columns rows colors chars-per-pixel */
"32 32 8 1 ",
"  c black",
". c #5B0E0B",
"X c #B50700",
"o c #E0600B",
"O c #4C9D60",
"+ c #DE9714",
"@ c #EAB824",
"# c #FFFF2F",
/* pixels */
"OOOOOOOOOOOOOOOOOOOOOOOOOOOOOOOO",
"OOOOOOOOOOOOOOOOOOOOOOOOOOOOOOOO",
"OOOOOOOOOOOOOOOOOOOOOOOOOOOOOOOO",
"OOOOOOOOOOOOOOOOOOOOOOOOOOOOOOOO",
"OOOOOOOOOOOOOOOOOOOOOOOOOOOOOOOO",
"OOOOOOOOOOO          OOOOOOOOOOO",
"OOOOOOOOOOO          OOOOOOOOOOO",
"OOOOOOOOO  ##########  OOOOOOOOO",
"OOOOOOOOO  ##########  OOOOOOOOO",
"OOOOOOO  ##@@@@@@@@@@##  OOOOOOO",
"OOOOOOO  ##@@@@@@@@@@##  OOOOOOO",
"OOOOO  ++XXXXXXXXXXXXXX++  OOOOO",
"OOOOO  ++XXXXXXXXXXXXXX++  OOOOO",
"OOOOO  ++XXXX######XXXX++  OOOOO",
"OOOOO  ++XXXX######XXXX++  OOOOO",
"OOOOO  ooXXXX++XXXXXXXX++  OOOOO",
"OOOOO  ooXXXX++XXXXXXXX++  OOOOO",
"OOOOO  oo....++....++..oo  OOOOO",
"OOOOO  oo....++....++..oo  OOOOO",
"OOOOO  oo....++++++....oo  OOOOO",
"OOOOO  oo....++++++....oo  OOOOO",
"OOOOOOO  oo..........oo  OOOOOOO",
"OOOOOOO  oo..........oo  OOOOOOO",
"OOOOOOOOO  oooooooooo  OOOOOOOOO",
"OOOOOOOOO  oooooooooo  OOOOOOOOO",
"OOOOOOOOOOO          OOOOOOOOOOO",
"OOOOOOOOOOO          OOOOOOOOOOO",
"OOOOOOOOOOOOOOOOOOOOOOOOOOOOOOOO",
"OOOOOOOOOOOOOOOOOOOOOOOOOOOOOOOO",
"OOOOOOOOOOOOOOOOOOOOOOOOOOOOOOOO",
"OOOOOOOOOOOOOOOOOOOOOOOOOOOOOOOO",
"OOOOOOOOOOOOOOOOOOOOOOOOOOOOOOOO"
};
