/* XPM */
static char *rcp13193365865725[] = {
/* columns rows colors chars-per-pixel */
"32 32 7 1 ",
"  c red",
". c red",
"X c black",
"o c yellow",
"O c #B1A561",
"+ c #E9DA8A",
"@ c #4C9D60",
/* pixels */     
"@@@@@@@@@@@@@@@@@@@@@@@@@@@@@@@@",
"@@@@@@@@@@@@@@@@@@@@@@@@@@@@@@@@",
"@@@@@@@@@@@@@@@@@@@@@@@@@@@@@@@@",
"@@@@@@@@@@@@@@@@@@@@@@@@@@@@@@@@",
"@@@@@@@@@@@@@@@@@@@@@@@@@@@@@@@@",
"@@@@@@@@@@@@      @@@@@@@@@@@@@@",
"@@@@@@@@@@@ ......  @@@@@@@@@@@@",
"@@@@@@@@   ..  ..... @@@@@@@@@@@",
"@@@@@@@ .... @@ ....       @@@@@",
"@@@@@@@@    @@@@ .......... @@@@",
"@@@@@@@@@@@@@@@@ .......... @@@@",
"@@@@@@@@@@@@@@@@ .........  @@@@",
"@@@@@@@@@@@@@@@@ .......   @@@@@",
"@@@@@@@@@@@@@@@@ .......... @@@@",
"@@@@@@@@@@@@@@@@ .......... @@@@",
"@@@@@@@@@@@    @ .........  @@@@",
"@@@@@@@XX       XX......   @@@@@",
"@@@@@@XXX      . XX........ @@@@",
"@@@@@XXXX      .  XX....... @@@@",
"@@@@@@@@X      . . X....    @@@@",
"@@@@@@@@X      ... X...... @@@@@",
"@@@@@@@@@   +O ... Xo...... @@@@",
"@@@@@@@@@       .. X....... @@@@",
"@@@@@@@@@        . X...    @@@@@",
"@@@@@@@@X        . X   @@@@@@@@@",
"@@@@@XXXX       .. @@@@@@@@@@@@@",
"@@@@@@XXX   +O .. @@@@@@@@@@@@@@",
"@@@@@@@XX      . @@@@@@@@@@@@@@@",
"@@@@@@@@@@@@    @@@@@@@@@@@@@@@@",
"@@@@@@@@@@@@@@@@@@@@@@@@@@@@@@@@",
"@@@@@@@@@@@@@@@@@@@@@@@@@@@@@@@@",
"@@@@@@@@@@@@@@@@@@@@@@@@@@@@@@@@"
};
