/* XPM */
static char *rcp1413234506244[] = {
/* columns rows colors chars-per-pixel */
"32 32 212 2 ",
"   c black",
".  c #030300",
"X  c #000103",
"o  c #000302",
"O  c #010203",
"+  c #060000",
"@  c gray2",
"#  c #050606",
"$  c #060606",
"%  c #0C0605",
"&  c #0B0808",
"*  c #160C00",
"=  c #120A07",
"-  c #16100B",
";  c #19100D",
":  c #141818",
">  c #2B1D0C",
",  c #231613",
"<  c #261712",
"1  c #2D1A17",
"2  c #2D1A18",
"3  c #2D1B18",
"4  c #2E1B18",
"5  c #2E1B1A",
"6  c #2D1C18",
"7  c #301A14",
"8  c #2B2116",
"9  c #392517",
"0  c #3A2616",
"q  c #352318",
"w  c #3C2219",
"e  c #312D1D",
"r  c #342D1E",
"t  c #412816",
"y  c #492F19",
"u  c #4A281F",
"i  c #4A3116",
"p  c #473018",
"a  c #48311A",
"s  c #4C331C",
"d  c #4B2D26",
"f  c #473823",
"g  c #4C312E",
"h  c #573A21",
"j  c #583D26",
"k  c #553129",
"l  c #54322B",
"z  c #573C2A",
"x  c #57382C",
"c  c #5F382D",
"v  c #5F3C31",
"b  c #5E3D33",
"n  c #60372D",
"m  c #663A2F",
"M  c #673A2F",
"N  c #623930",
"B  c #653931",
"V  c #673B30",
"C  c #673B31",
"Z  c #663932",
"A  c #603D37",
"S  c #683A31",
"D  c #683B32",
"F  c #683C31",
"G  c #6B3F34",
"H  c #564422",
"J  c #5E4328",
"K  c #594A2D",
"L  c #5A4B2F",
"P  c #724B29",
"I  c #62522C",
"U  c #7D532B",
"Y  c #7A522D",
"T  c #7A522F",
"R  c #624831",
"E  c #754E30",
"W  c #665233",
"Q  c #6B5A36",
"!  c #625138",
"~  c #6D593A",
"^  c #6A583F",
"/  c #795230",
"(  c #7A5734",
")  c #736239",
"_  c #776139",
"`  c #74613A",
"'  c #71623E",
"]  c #76653D",
"[  c #484A4A",
"{  c #5B4F41",
"}  c #5C4B46",
"|  c #5A5C5D",
" . c #5D605E",
".. c #6F6650",
"X. c #63605A",
"o. c #5B5F60",
"O. c #5C6060",
"+. c gray39",
"@. c #616464",
"#. c #636869",
"$. c #726C6A",
"%. c #776E6C",
"&. c #747267",
"*. c #757878",
"=. c #797C7B",
"-. c #805233",
";. c #8B5F33",
":. c #875B38",
">. c #826539",
",. c #916238",
"<. c #97663A",
"1. c #9F6B3B",
"2. c #9D6C3F",
"3. c #A06C3C",
"4. c #A16C3C",
"5. c #A16D3C",
"6. c #A16D3D",
"7. c #A26C3C",
"8. c #A36C3D",
"9. c #A26D3D",
"0. c #A36D3D",
"q. c #A26E3D",
"w. c #A36F3D",
"e. c #A26E3E",
"r. c #A36E3E",
"t. c #A26F3E",
"y. c #A36F3E",
"u. c #A26E3F",
"i. c #A46D3E",
"p. c #A4703F",
"a. c #976C41",
"s. c #8B7449",
"d. c #9D7240",
"f. c #997443",
"g. c #92724A",
"h. c #90774A",
"j. c #A67140",
"k. c #867F6E",
"l. c #847571",
"z. c #857874",
"x. c #827E7C",
"c. c #9A8251",
"v. c #9C8554",
"b. c #A2804A",
"n. c #A8854A",
"m. c #AF8750",
"M. c #A88755",
"N. c #A18853",
"B. c #AA8C52",
"V. c #AA8E55",
"C. c #BC9757",
"Z. c #BE9758",
"A. c #B69B5C",
"S. c #BB9B5F",
"D. c #838273",
"F. c #82807E",
"G. c #98947E",
"H. c #BFA260",
"J. c #BAA066",
"K. c #C2A05C",
"L. c #C0A161",
"P. c #C2A261",
"I. c #C1A262",
"U. c #C3A362",
"Y. c #C1A462",
"T. c #C8A564",
"R. c #C9A965",
"E. c #CBA965",
"W. c #CAA967",
"Q. c #CEAB67",
"!. c #CBAD67",
"~. c #CDAC66",
"^. c #CCAC67",
"/. c #CDAC67",
"(. c #CCAD67",
"). c #CEAC67",
"_. c #C4A76C",
"`. c #C6A76C",
"'. c #C7AB69",
"]. c #C4A96A",
"[. c #C6AA6D",
"{. c #CBAB68",
"}. c #CEAB6A",
"|. c #CDAD68",
" X c #CEAC68",
".X c #CEAD68",
"XX c #7F8383",
"oX c #938A87",
"OX c #988883",
"+X c #9B9290",
"@X c #999690",
"#X c #9E9E99",
"$X c #9E9C9C",
"%X c #A5A19C",
"&X c #A9ADAD",
"*X c #AAADAD",
"=X c #ABB0AF",
"-X c #B0B5B5",
";X c #B9B8B2",
":X c #B3B8B8",
">X c #BABFBF",
",X c #BBC1C1",
"<X c #C2C7C7",
"1X c #C2C8C8",
"2X c #C3C9C9",
"3X c #C8CDCE",
"4X c #CFD4D4",
"5X c #CFD5D4",
"6X c  #4D9D61",
"7X c #D1D5D5",
"8X c #D1D6D7",
"9X c #D2D7D7",
/* pixels */
"6X6X6X6X6X6X6X6X6X6X6X6X6X6X6X6X6X6X6X6X6X6X6X6X6X6X6X6X6X6X6X6X",
"6X6X6X6X6X6X6X6X6X6X6X6X6X6X6X6X6X6X6X6X6X6X6X6X6X6X6X6X6X6X6X6X",
"6X6X6X6X6X6X6X6X6X6X6X6X6X6X6X6X6X6X6X6X6X6X6X6X6X6X6X6X6X6X6X6X",
"6X6X6X6X6X6X6X6X6X6X6X6X6X6X6X6X6X6X6X6X6X6X6X6X6X6X6X6X6X6X6X6X",
"6X6X6X6X6X6X6X6X6X6X6X6X6X6X6X6X6X6X6X6X6X6X6X6X6X6X6X6X6X6X6X6X",
"6X6X6X6X6X6X6X6X6X6X6X6X6X6X6X6X6X6X6X6X6X6X6X6X6X6X6X6X6X6X6X6X",
"6X6X6X6X6X6X6X6X6X6X6X6X6X6X6X6X6X6X6X6X6X6X6X6X6X6X6X6X6X6X6X6X",
"6X6X6X6X6X6X6X6X6X6X6X6X6X .l.G.| &.o.#.6X6X6X6X6X6X6X6X6X6X6X6X",
"6X6X6X6X6X6X6X6X6X6X*.OX6 w ~ /.5 l -.j a F.:X6X6X6X6X6X6X6X6X6X",
"6X6X6X6X6X6X6X6X$Xz.N d f !./..X1 S F b :.a.h %X=X6X6X6X6X6X6X6X",
"6X6X6X6X6X6X*X} c x _ .X/././..X5 S F F F u z d.U @X-X6X6X6X6X6X",
"6X6X6X6X6Xg b = ].Q.Q..X/././..X5 S F F F F V A + t <.: 6X6X6X6X",
"6X6X6X6X6X<X1XJ 2.h.}././././..X1 S F F F F < m.H.[ <X1X6X6X6X6X",
"6X6X6X6X6X6XX.5.i.j.;.K.Y././..X1 V F F ; n.U././.v.6X6X6X6X6X6X",
"6X6X6X6X6X6XR 5.5.5.5.5.E `.N..X5 S q M.C././././.S.O.6X6X6X6X6X",
"6X6X6X6X6X6Xi 5.5.5.5.5.5.5.( >.9 g.Z././././././.V...6X6X6X6X6X",
"6X6X6X6X6X6X9X{ / 5.5.5.1.5.5.p e /./././././.c.' XX6X6X6X6X6X6X",
"6X6X6X6X6X6X6X@.@ - T 5.5.p.,.@ s W /././.B.s.b.] 6X6X6X6X6X6X6X",
"6X6X6X6X6X6X6X+.% X X X T 5.9 X y P /.W.> T./.I X 6X6X6X6X6X6X6X",
"6X6X6X6X6X6X6X%.F F S V V @ & X y 5.8 {.Q.U.[.) X 6X6X6X6X6X6X6X",
"6X6X6X6X6X6X6X%.F F F M V F G n K W.Q.U.* H ]._ Q 6X6X6X6X6X6X6X",
"6X6X6X6X6X6X6X>X$.5 F M V F G M K /./.U.J.X f.D.;X6X6X6X6X6X6X6X",
"6X6X6X6X6X6X6X6X6X,XoX, V F G M K /./.W.`.k.#X6X6X6X6X6X6X6X6X6X",
"6X6X6X6X6X6X6X6X6X6X6X3X+X7 G V K /.A.! =.6X6X6X6X6X6X6X6X6X6X6X",
"6X6X6X6X6X6X6X6X6X6X6X6X6X9Xx.l r ^ *X6X6X6X6X6X6X6X6X6X6X6X6X6X",
"6X6X6X6X6X6X6X6X6X6X6X6X6X6X6X9X9X6X6X6X6X6X6X6X6X6X6X6X6X6X6X6X",
"6X6X6X6X6X6X6X6X6X6X6X6X6X6X6X6X6X6X6X6X6X6X6X6X6X6X6X6X6X6X6X6X",
"6X6X6X6X6X6X6X6X6X6X6X6X6X6X6X6X6X6X6X6X6X6X6X6X6X6X6X6X6X6X6X6X",
"6X6X6X6X6X6X6X6X6X6X6X6X6X6X6X6X6X6X6X6X6X6X6X6X6X6X6X6X6X6X6X6X",
"6X6X6X6X6X6X6X6X6X6X6X6X6X6X6X6X6X6X6X6X6X6X6X6X6X6X6X6X6X6X6X6X",
"6X6X6X6X6X6X6X6X6X6X6X6X6X6X6X6X6X6X6X6X6X6X6X6X6X6X6X6X6X6X6X6X",
"6X6X6X6X6X6X6X6X6X6X6X6X6X6X6X6X6X6X6X6X6X6X6X6X6X6X6X6X6X6X6X6X"
};
