/* XPM */
static char *stone_xpm[] = {
/* columns rows colors chars-per-pixel */
"16 16 4 1",
/* colors */
"A c #4B4B4B",
"B c #6E6E6E",
"C c #8A8A8A",
"D c #BDBDBD",

/* pixels */
"AABBBBBBCCCCCDDD",
"AABBBBBBCCCCCDDD",
"AABBBBAACCCCDDDA",
"AABBBAAACCCCDDDA",
"BBBBBAAACCCCDDDD",
"BBBBBAAACCCCDDDD",
"BBBBBAAACCCCDDDA",
"AABBBBAACCCCDDDA",
"AABBBBBBCCCCCDDD",
"AABBBBBBCCCCCDDD",
"BBBBBAAACCCCDDDD",
"BBBBBAAACCCCDDDD",
"AABBBBAACCCCDDDA",
"AABBBBAACCCCDDDA",
"AABBBBBBCCCCCDDD",
"AABBBBBBCCCCCDDD"
};